<svg width="1266" height="1310" viewBox="0 0 1266 1310" fill="none" xmlns="http://www.w3.org/2000/svg">
<g clip-path="url(#clip0_111:252)">
<path d="M1266 1215.12H1024V1309.73H1266V1215.12ZM630.25 449.7H535.63V1262.44H630.25V449.7ZM190.94 449.7H96.3101V1262.44H190.94V449.7ZM202.77 143.85C202.819 151.631 201.323 159.345 198.368 166.544C195.412 173.742 191.057 180.282 185.555 185.785C180.053 191.287 173.512 195.642 166.314 198.597C159.115 201.552 151.401 203.049 143.62 203C111.51 203 84.4801 176 84.4801 143.85C84.4323 136.07 85.9293 128.358 88.8845 121.161C91.8396 113.965 96.194 107.426 101.695 101.925C107.196 96.4237 113.735 92.0693 120.932 89.1142C128.129 86.1591 135.84 84.662 143.62 84.7098C177.42 84.7098 202.77 110.07 202.77 143.85V143.85ZM287.26 143.85C287.26 115.443 278.837 87.6739 263.055 64.0543C247.273 40.4347 224.842 22.0253 198.597 11.1539C172.353 0.282636 143.474 -2.56232 115.613 2.97887C87.7517 8.52005 62.1593 22.1985 42.0719 42.2845C21.9844 62.3705 8.30422 87.962 2.76109 115.823C-2.78203 143.684 0.060895 172.563 10.9304 198.808C21.7999 225.053 40.2077 247.485 63.8262 263.269C87.4448 279.052 115.213 287.478 143.62 287.48C162.487 287.497 181.172 283.794 198.607 276.582C216.041 269.37 231.882 258.791 245.223 245.45C258.565 232.11 269.145 216.269 276.358 198.836C283.571 181.402 287.276 162.717 287.26 143.85V143.85ZM642.09 143.85C642.139 151.631 640.643 159.345 637.688 166.544C634.732 173.742 630.377 180.282 624.875 185.785C619.373 191.287 612.832 195.642 605.634 198.597C598.435 201.552 590.721 203.049 582.94 203C550.84 203 523.81 176 523.81 143.85C523.762 136.071 525.259 128.36 528.214 121.164C531.168 113.968 535.522 107.43 541.022 101.929C546.522 96.4275 553.059 92.0728 560.255 89.1171C567.45 86.1614 575.161 84.6633 582.94 84.7098C616.74 84.7098 642.09 110.07 642.09 143.85V143.85ZM726.58 143.85C726.58 115.443 718.157 87.6739 702.375 64.0543C686.593 40.4347 664.162 22.0253 637.917 11.1539C611.673 0.282636 582.794 -2.56232 554.933 2.97887C527.072 8.52005 501.479 22.1985 481.392 42.2845C461.304 62.3705 447.624 87.962 442.081 115.823C436.538 143.684 439.381 172.563 450.25 198.808C461.12 225.053 479.528 247.485 503.146 263.269C526.765 279.052 554.533 287.478 582.94 287.48C601.807 287.497 620.492 283.794 637.927 276.582C655.361 269.37 671.202 258.791 684.544 245.45C697.885 232.11 708.465 216.269 715.678 198.836C722.891 181.402 726.596 162.717 726.58 143.85ZM976.64 1161.06H1071.27V40.7798H976.64V1161.06Z" fill="white"/>
</g>
<defs>
<clipPath id="clip0_111:252">
<rect width="1266" height="1310" fill="white"/>
</clipPath>
</defs>
</svg>
