<svg xmlns="http://www.w3.org/2000/svg" viewBox="0 0 2000 2000"><path d="M1639,1568.12H1397v94.61h242ZM1003.25,802.7H908.63v812.74h94.62Zm-439.31,0H469.31v812.74h94.63Zm11.83-305.85A58.78,58.78,0,0,1,516.62,556c-32.11,0-59.14-27-59.14-59.15a58.78,58.78,0,0,1,59.14-59.14c33.8,0,59.15,25.36,59.15,59.14m84.49,0A143.63,143.63,0,1,0,516.62,640.48,143.51,143.51,0,0,0,660.26,496.85m354.83,0A58.78,58.78,0,0,1,955.94,556c-32.1,0-59.13-27-59.13-59.15a58.78,58.78,0,0,1,59.13-59.14c33.8,0,59.15,25.36,59.15,59.14m84.49,0A143.63,143.63,0,1,0,955.94,640.48a143.51,143.51,0,0,0,143.64-143.63m250.06,1017.21h94.63V393.78h-94.63Z"/></svg>